HIERARCHY
ROOT Hips
{
    OFFSET   0.000000   0.000000   0.000000
    CHANNELS 6 Xposition Yposition Zposition Zrotation Xrotation Yrotation
    JOINT Chest
    {
        OFFSET   0.000000   8.007240   0.000000
        CHANNELS 3 Zrotation Xrotation Yrotation
        JOINT Chest2
        {
            OFFSET   0.000000  22.077100   0.000000
            CHANNELS 3 Zrotation Xrotation Yrotation
            JOINT Neck
            {
                OFFSET   0.000000  23.254800   0.000000
                CHANNELS 3 Zrotation Xrotation Yrotation
                JOINT Head
                {
                    OFFSET   0.000000  14.370000   1.956600
                    CHANNELS 3 Zrotation Xrotation Yrotation
                    End Site
                    {
                        OFFSET   0.000000  19.566000   0.000000
                    }
                }
            }
            JOINT LeftCollar
            {
                OFFSET   3.911900  19.017000  -0.467064
                CHANNELS 3 Zrotation Xrotation Yrotation
                JOINT LeftShoulder
                {
                    OFFSET  10.383700   0.000000   0.000000
                    CHANNELS 3 Zrotation Xrotation Yrotation
                    JOINT LeftElbow
                    {
                        OFFSET  26.662100   0.001476   0.000517
                        CHANNELS 3 Zrotation Xrotation Yrotation
                        JOINT LeftWrist
                        {
                            OFFSET  28.869000  -0.000025  -0.000106
                            CHANNELS 3 Zrotation Xrotation Yrotation
                            JOINT LeftFinger0
                            {
                                OFFSET   2.044660  -2.323460   3.252850
                                CHANNELS 3 Zrotation Xrotation Yrotation
                                JOINT LeftFinger01
                                {
                                    OFFSET   3.088130   0.000000   0.000000
                                    CHANNELS 3 Zrotation Xrotation Yrotation
                                    JOINT LeftFinger02
                                    {
                                        OFFSET   2.639460   0.000000   0.000000
                                        CHANNELS 3 Zrotation Xrotation Yrotation
                                        End Site
                                        {
                                            OFFSET   2.582190   0.000000   0.000000
                                        }
                                    }
                                }
                            }
                            JOINT LeftFinger1
                            {
                                OFFSET   8.364480   0.000000   3.252850
                                CHANNELS 3 Zrotation Xrotation Yrotation
                                JOINT LeftFinger11
                                {
                                    OFFSET   4.646930   0.000000   0.000000
                                    CHANNELS 3 Zrotation Xrotation Yrotation
                                    JOINT LeftFinger12
                                    {
                                        OFFSET   2.323460   0.000000   0.000000
                                        CHANNELS 3 Zrotation Xrotation Yrotation
                                        End Site
                                        {
                                            OFFSET   2.273050   0.000000   0.000000
                                        }
                                    }
                                }
                            }
                            JOINT LeftFinger2
                            {
                                OFFSET   8.364490   0.000015   1.078090
                                CHANNELS 3 Zrotation Xrotation Yrotation
                                JOINT LeftFinger21
                                {
                                    OFFSET   5.111620   0.000000   0.000000
                                    CHANNELS 3 Zrotation Xrotation Yrotation
                                    JOINT LeftFinger22
                                    {
                                        OFFSET   2.788160   0.000016   0.000000
                                        CHANNELS 3 Zrotation Xrotation Yrotation
                                        End Site
                                        {
                                            OFFSET   2.727660   0.000000   0.000000
                                        }
                                    }
                                }
                            }
                            JOINT LeftFinger3
                            {
                                OFFSET   7.899780   0.000017  -1.078090
                                CHANNELS 3 Zrotation Xrotation Yrotation
                                JOINT LeftFinger31
                                {
                                    OFFSET   4.646930   0.000000   0.000000
                                    CHANNELS 3 Zrotation Xrotation Yrotation
                                    JOINT LeftFinger32
                                    {
                                        OFFSET   2.323470   0.000000   0.000000
                                        CHANNELS 3 Zrotation Xrotation Yrotation
                                        End Site
                                        {
                                            OFFSET   2.273050   0.000000   0.000000
                                        }
                                    }
                                }
                            }
                            JOINT LeftFinger4
                            {
                                OFFSET   7.435090   0.000000  -3.252850
                                CHANNELS 3 Zrotation Xrotation Yrotation
                                JOINT LeftFinger41
                                {
                                    OFFSET   3.717550   0.000000   0.000000
                                    CHANNELS 3 Zrotation Xrotation Yrotation
                                    JOINT LeftFinger42
                                    {
                                        OFFSET   1.858770   0.000000   0.000000
                                        CHANNELS 3 Zrotation Xrotation Yrotation
                                        End Site
                                        {
                                            OFFSET   1.818440   0.000000   0.000000
                                        }
                                    }
                                }
                            }
                        }
                    }
                }
            }
            JOINT RightCollar
            {
                OFFSET  -3.911900  19.017000  -0.467063
                CHANNELS 3 Zrotation Xrotation Yrotation
                JOINT RightShoulder
                {
                    OFFSET -10.383700   0.000019   0.000000
                    CHANNELS 3 Zrotation Xrotation Yrotation
                    JOINT RightElbow
                    {
                        OFFSET -26.662100   0.001175   0.000102
                        CHANNELS 3 Zrotation Xrotation Yrotation
                        JOINT RightWrist
                        {
                            OFFSET -28.869000   0.000016  -0.000079
                            CHANNELS 3 Zrotation Xrotation Yrotation
                            JOINT RightFinger0
                            {
                                OFFSET  -2.044660  -2.323490   3.252850
                                CHANNELS 3 Zrotation Xrotation Yrotation
                                JOINT RightFinger01
                                {
                                    OFFSET  -3.088140   0.000000   0.000000
                                    CHANNELS 3 Zrotation Xrotation Yrotation
                                    JOINT RightFinger02
                                    {
                                        OFFSET  -2.639460   0.000000   0.000000
                                        CHANNELS 3 Zrotation Xrotation Yrotation
                                        End Site
                                        {
                                            OFFSET  -2.582190   0.000000   0.000000
                                        }
                                    }
                                }
                            }
                            JOINT RightFinger1
                            {
                                OFFSET  -8.364480   0.000000   3.252850
                                CHANNELS 3 Zrotation Xrotation Yrotation
                                JOINT RightFinger11
                                {
                                    OFFSET  -4.646930   0.000000   0.000000
                                    CHANNELS 3 Zrotation Xrotation Yrotation
                                    JOINT RightFinger12
                                    {
                                        OFFSET  -2.323470   0.000000   0.000000
                                        CHANNELS 3 Zrotation Xrotation Yrotation
                                        End Site
                                        {
                                            OFFSET  -2.273050   0.000000   0.000000
                                        }
                                    }
                                }
                            }
                            JOINT RightFinger2
                            {
                                OFFSET  -8.364480   0.000000   1.078090
                                CHANNELS 3 Zrotation Xrotation Yrotation
                                JOINT RightFinger21
                                {
                                    OFFSET  -5.111620   0.000000   0.000000
                                    CHANNELS 3 Zrotation Xrotation Yrotation
                                    JOINT RightFinger22
                                    {
                                        OFFSET  -2.788160   0.000000   0.000000
                                        CHANNELS 3 Zrotation Xrotation Yrotation
                                        End Site
                                        {
                                            OFFSET  -2.727660   0.000000   0.000000
                                        }
                                    }
                                }
                            }
                            JOINT RightFinger3
                            {
                                OFFSET  -7.899780   0.000000  -1.078090
                                CHANNELS 3 Zrotation Xrotation Yrotation
                                JOINT RightFinger31
                                {
                                    OFFSET  -4.646930   0.000000   0.000000
                                    CHANNELS 3 Zrotation Xrotation Yrotation
                                    JOINT RightFinger32
                                    {
                                        OFFSET  -2.323470   0.000000   0.000000
                                        CHANNELS 3 Zrotation Xrotation Yrotation
                                        End Site
                                        {
                                            OFFSET  -2.273050   0.000000   0.000000
                                        }
                                    }
                                }
                            }
                            JOINT RightFinger4
                            {
                                OFFSET  -7.435090   0.000000  -3.252850
                                CHANNELS 3 Zrotation Xrotation Yrotation
                                JOINT RightFinger41
                                {
                                    OFFSET  -3.717550   0.000000   0.000000
                                    CHANNELS 3 Zrotation Xrotation Yrotation
                                    JOINT RightFinger42
                                    {
                                        OFFSET  -1.858770   0.000000   0.000000
                                        CHANNELS 3 Zrotation Xrotation Yrotation
                                        End Site
                                        {
                                            OFFSET  -1.818440   0.000000   0.000000
                                        }
                                    }
                                }
                            }
                        }
                    }
                }
            }
        }
    }
    JOINT LeftHip
    {
        OFFSET   9.783040   0.000000   0.000000
        CHANNELS 3 Zrotation Xrotation Yrotation
        JOINT LeftKnee
        {
            OFFSET   0.000032 -41.789100  -0.002222
            CHANNELS 3 Zrotation Xrotation Yrotation
            JOINT LeftAnkle
            {
                OFFSET   0.000087 -41.133200  -0.000135
                CHANNELS 3 Zrotation Xrotation Yrotation
                JOINT LeftToe
                {
                    OFFSET   0.000000  -6.358960  14.674500
                    CHANNELS 3 Zrotation Xrotation Yrotation
                    End Site
                    {
                        OFFSET   0.000000   0.000000   3.913200
                    }
                }
            }
        }
    }
    JOINT RightHip
    {
        OFFSET  -9.783040   0.000000   0.000000
        CHANNELS 3 Zrotation Xrotation Yrotation
        JOINT RightKnee
        {
            OFFSET   0.000047 -41.789100  -0.000896
            CHANNELS 3 Zrotation Xrotation Yrotation
            JOINT RightAnkle
            {
                OFFSET  -0.000117 -41.133300  -0.000248
                CHANNELS 3 Zrotation Xrotation Yrotation
                JOINT RightToe
                {
                    OFFSET   0.000000  -6.358970  14.674500
                    CHANNELS 3 Zrotation Xrotation Yrotation
                    End Site
                    {
                        OFFSET   0.000000   0.000000   3.913200
                    }
                }
            }
        }
    }
}
MOTION
Frames: 6
Frame Time:   0.016667
 -0.641154  88.283700   1.975040  -2.154440  -9.139530  -8.273860   0.803268   3.602040   0.170274   1.600410   7.206090   0.290986  -4.132980  -4.193030  -0.302696  -6.892170  -8.370360  13.942500 -10.149300   0.153157  -1.254920 -73.352000  15.554500  -4.067530  -0.837519  -4.008090  -8.529140   6.793350  -6.942460  10.724400  43.672900  33.014300 -67.083500 -23.435600  -0.006615   0.003194  -6.717790  -0.006315  -0.005820 -32.790900   6.082880  -9.328200 -27.236100   0.001179  -0.003267 -19.065300   0.002093  -0.000664 -28.363500   2.086960  -3.858200 -35.456600   0.001546  -0.001205 -23.614100   0.000742  -0.000955 -28.582400  -0.385741   0.707762 -37.195600   0.001521  -0.001823 -24.772200   0.002075   0.001136 -36.106800  -0.475880   0.650959 -54.164700  -0.005376   0.002386 -36.073800  -0.001769  -0.001269   6.177320  -3.009350  12.059700  69.237400  22.960800 -14.106400 -13.628900  -2.109020  87.473400  25.208900 -11.595300  23.575500 -43.846300  37.017400  67.167000  28.603800  -0.009466   0.004591   9.301890  -0.002639   0.001814  25.700000   2.237550   4.628890  21.097100  -0.002115   0.000799  14.767900   0.000579   0.003637  16.733600  -0.075303  -0.237001  16.733100   0.000766  -0.001860  11.144300  -0.001504   0.003777  10.043600  -1.422870  -8.049240  10.139000   0.001681  -0.000572   6.752570   0.000630  -0.001113  13.878400  -2.931900 -11.739400  21.259900  -0.002356  -0.001942  14.159100   0.006838  -0.005035   2.106890  15.067300   6.962690   0.118373   0.953946  14.692100  -3.411230  -5.462200   5.832650   0.000000   0.000000  -0.000000   0.686657  -2.532370   0.516282   2.623700  25.874700 -10.842000  -1.955740 -13.767400   1.447740   0.000000   0.000000   0.000000
 -0.640373  88.277800   1.963690  -2.177160  -9.116270  -8.490610   0.803624   3.572190   0.170132   1.601280   7.146440   0.290814  -4.108450  -4.098950  -0.294159  -6.845200  -8.183840  13.940800 -10.116400   0.164248  -1.223600 -73.389000  15.881000  -4.116340  -0.813655  -4.288530  -8.102150   6.624200  -6.719900  10.798300  43.671900  32.958300 -66.995400 -23.390000  -0.013357   0.003182  -6.694990  -0.013290  -0.009031 -32.719700   6.092150  -9.379880 -27.180200   0.001155  -0.003210 -19.026200   0.002057  -0.000637 -28.345200   2.110270  -3.904940 -35.284200   0.001439  -0.001165 -23.499300   0.000693  -0.000948 -28.563800  -0.353804   0.649725 -36.946000   0.001393  -0.001822 -24.606000   0.002064   0.001171 -35.969100  -0.434820   0.598674 -53.957500  -0.005448   0.002373 -35.935800  -0.001763  -0.001259   6.119380  -3.021710  12.045100  68.674000  23.042500 -13.480600 -13.701200  -2.480910  87.215200  26.265500 -12.375000  23.764000 -43.865200  37.010000  67.222700  28.485700  -0.008895   0.003395   9.242860  -0.001977   0.000950  26.427800   2.221080   4.469410  21.693400  -0.001676  -0.000267  15.185300   0.000483   0.003900  17.233900  -0.169468  -0.547968  17.234700   0.001079  -0.002479  11.478400  -0.001350   0.003259  10.283800  -1.431350  -7.824660  10.381300   0.001693  -0.001179   6.913960   0.000381  -0.001670  14.120900  -2.954240 -11.566700  21.629600  -0.002467  -0.001861  14.405300   0.006250  -0.005256   2.090090  15.079200   6.963960   0.111301   0.956126  14.745500  -3.415230  -5.491510   5.993950   0.000000   0.000000   0.000000   0.692882  -2.587980   0.499108   2.559070  25.903800 -10.687600  -1.941100 -13.752300   1.535640   0.000000   0.000000   0.000000
 -0.647455  88.274400   1.956130  -2.220010  -9.130870  -8.674780   0.803924   3.574860   0.175672   1.601510   7.151830   0.301887  -4.078150  -4.036020  -0.287758  -6.792710  -8.061010  13.899800 -10.101100   0.151428  -1.207380 -73.383000  16.058200  -4.178860  -0.795584  -4.443010  -7.742780   6.526870  -6.532890  10.883700  43.635700  32.836900 -66.890200 -23.308700  -0.025128   0.003176  -6.654330  -0.023544  -0.015811 -32.674100   6.139500  -9.474030 -27.147300   0.001124  -0.003160 -19.003100   0.002025  -0.000609 -28.333100   2.164170  -4.006560 -35.184100   0.001335  -0.001120 -23.432600   0.000647  -0.000944 -28.552700  -0.295384   0.542628 -36.794100   0.001266  -0.001821 -24.504900   0.002055   0.001205 -35.893700  -0.362424   0.500435 -53.843400  -0.005519   0.002359 -35.859800  -0.001755  -0.001247   6.083840  -3.060550  12.039500  68.072300  22.758700 -12.886100 -13.792400  -2.662570  86.931000  27.297500 -13.095300  24.054800 -44.475100  37.350100  67.050500  28.136800  -0.008198   0.002370   9.068410  -0.001256   0.000038  26.639900   2.139160   4.263700  21.864300  -0.001142  -0.001399  15.305000   0.000369   0.004158  17.543700  -0.129970  -0.414835  17.544000   0.001513  -0.003528  11.684300  -0.001156   0.002667  10.350900  -1.390730  -7.520720  10.446200   0.001711  -0.001804   6.957130   0.000100  -0.002235  14.142300  -2.910140 -11.322200  21.657800  -0.002686  -0.001837  14.424000   0.005675  -0.005552   2.099710  15.134300   6.940760   0.099397   0.955707  14.832700  -3.410850  -5.521500   6.106670   0.000000   0.000000  -0.000000   0.714189  -2.573870   0.531384   2.528050  25.894300 -10.607900  -1.924670 -13.734700   1.610730   0.000000   0.000000  -0.000000
 -0.657143  88.273400   1.945520  -2.266340  -9.154310  -8.822810   0.803581   3.584550   0.186980   1.600140   7.171340   0.324450  -4.046150  -4.003320  -0.282913  -6.736930  -7.996650  13.819800 -10.095600   0.129142  -1.202640 -73.369000  16.142400  -4.220000  -0.785970  -4.533650  -7.559460   6.493970  -6.439320  10.950600  43.601400  32.692200 -66.812800 -23.209100  -0.033171   0.003162  -6.604550  -0.030352  -0.020561 -32.643200   6.213850  -9.590570 -27.135000   0.001093  -0.003112 -18.994500   0.001995  -0.000580 -28.322800   2.231660  -4.132560 -35.147100   0.001232  -0.001076 -23.408000   0.000602  -0.000939 -28.548800  -0.225273   0.413906 -36.735600   0.001143  -0.001820 -24.466000   0.002046   0.001237 -35.868700  -0.276084   0.381875 -53.804600  -0.005589   0.002345 -35.833900  -0.001748  -0.001235   6.054240  -3.110580  12.023900  67.509800  22.243800 -12.348500 -13.916000  -2.788580  86.659800  28.033500 -13.771400  24.279500 -45.416000  37.932200  66.708300  27.735100  -0.007362   0.001420   8.867590  -0.000471  -0.000909  26.677100   2.080100   4.141320  21.888700  -0.000531  -0.002558  15.322100   0.000246   0.004406  17.690600  -0.073225  -0.226013  17.690600   0.001900  -0.004633  11.781900  -0.000931   0.002012  10.382100  -1.334850  -7.242500  10.466100   0.001773  -0.002435   6.970410  -0.000199  -0.002811  14.168100  -2.830740 -11.048300  21.661800  -0.002898  -0.001834  14.426700   0.005097  -0.005922   2.114530  15.191300   6.917630   0.090734   0.955297  14.917600  -3.402060  -5.552380   6.186000   0.000000   0.000000  -0.000000   0.737098  -2.553780   0.593171   2.530620  25.880700 -10.583500  -1.912180 -13.716800   1.669420  -0.000000   0.000000   0.000000
 -0.660385  88.276800   1.925540  -2.306100  -9.165010  -8.929420   0.802339   3.609980   0.204512   1.596260   7.222450   0.359340  -4.016230  -3.998730  -0.280033  -6.685380  -7.988200  13.715300 -10.110600   0.109184  -1.252220 -73.317800  16.167600  -4.221460  -0.784729  -4.600520  -7.557200   6.509110  -6.474510  10.970000  43.573000  32.582600 -66.799500 -23.100200  -0.025005   0.003124  -6.550120  -0.022975  -0.016288 -32.633600   6.296590  -9.719320 -27.139000   0.001069  -0.003063 -18.997400   0.001964  -0.000550 -28.319300   2.303380  -4.265260 -35.174700   0.001127  -0.001033 -23.426400   0.000555  -0.000934 -28.552500  -0.153779   0.282528 -36.774300   0.001044  -0.001822 -24.491800   0.002038   0.001270 -35.898200  -0.188238   0.260224 -53.847700  -0.005660   0.002329 -35.862600  -0.001743  -0.001220   6.015970  -3.172970  11.967600  67.080900  21.801500 -11.917500 -13.980100  -2.924180  86.422800  27.768100 -14.535700  24.111300 -46.265000  38.530900  66.493400  27.476500  -0.006889   0.000851   8.738290   0.000383  -0.001879  26.426000   2.141440   4.305440  21.686100  -0.000195  -0.003707  15.180300   0.000124   0.004644  17.693300  -0.047947  -0.151510  17.693300   0.002262  -0.005759  11.783700  -0.000694   0.001307  10.403000  -1.316530  -7.133730  10.483500   0.001851  -0.003060   6.982020  -0.000502  -0.003401  14.115900  -2.749820 -10.793200  21.564400  -0.003097  -0.001903  14.361900   0.004502  -0.006354   2.123790  15.209100   6.918970   0.092905   0.987702  14.976400  -3.391040  -5.595380   6.228880   0.000000   0.000000   0.000000   0.749636  -2.543950   0.674277   2.566460  25.879300 -10.603600  -1.913570 -13.700400   1.705240  -0.000000   0.000000  -0.000000
 -0.661224  88.281700   1.902960  -2.328430  -9.168910  -8.983770   0.801146   3.628380   0.216277   1.593340   7.259430   0.382744  -3.985930  -3.994720  -0.277711  -6.636440  -7.983060  13.605400 -10.125700   0.088516  -1.301810 -73.231100  16.171200  -4.221670  -0.776795  -4.625900  -7.557050   6.541650  -6.549720  10.974300  43.579600  32.514700 -66.820900 -23.002100  -0.016838   0.003082  -6.501050  -0.015599  -0.012016 -32.626000   6.373020  -9.837060 -27.143100   0.001047  -0.003012 -19.000200   0.001932  -0.000520 -28.319600   2.368480  -4.385380 -35.213400   0.001023  -0.000992 -23.452200   0.000508  -0.000928 -28.557700  -0.089258   0.163915 -36.838400   0.000909  -0.001824 -24.534400   0.002030   0.001303 -35.942900  -0.109186   0.150440 -53.914400  -0.005731   0.002312 -35.907000  -0.001737  -0.001205   5.972520  -3.220670  11.896200  66.790700  21.405100 -11.566100 -14.010700  -3.067150  86.213200  26.502600 -15.239900  23.429200 -47.036000  39.119900  66.182500  27.254200  -0.005351   0.000121   8.627120   0.001308  -0.002863  26.168200   2.241240   4.553330  21.483600   0.000881  -0.004812  15.038500   0.000000   0.004868  17.695900  -0.031515  -0.102457  17.696000   0.002594  -0.006868  11.785600  -0.000461   0.000570  10.449800  -1.313040  -7.113810  10.530800   0.002160  -0.003662   7.013490  -0.000804  -0.004005  14.063000  -2.680300 -10.564800  21.467000  -0.003294  -0.002072  14.297000   0.003881  -0.006832   2.128370  15.211500   6.924310   0.095581   1.020240  15.003100  -3.381140  -5.621950   6.251920  -0.000000   0.000000  -0.000000   0.754841  -2.540090   0.735192   2.601200  25.878300 -10.623800  -1.925210 -13.691700   1.718240  -0.000000   0.000000   0.000000
